<?xml version="1.0" encoding="utf-8"?>
<!-- Generator: Adobe Illustrator 22.0.1, SVG Export Plug-In . SVG Version: 6.00 Build 0)  -->
<svg version="1.1" id="Capa_1" xmlns="http://www.w3.org/2000/svg" xmlns:xlink="http://www.w3.org/1999/xlink" x="0px" y="0px"
	 viewBox="0 0 50 50" style="enable-background:new 0 0 50 50;" xml:space="preserve">
<path d="M12.5,22.8c5.2,0,9.4,4.2,9.4,9.4c0,5.2-4.2,9.4-9.4,9.4s-9.4-4.2-9.4-9.4l0-1.3C3.1,20.5,11.5,12,21.9,12v5.4
	c-3.6,0-6.9,1.4-9.5,3.9c-0.5,0.5-0.9,1-1.3,1.6C11.5,22.8,12,22.8,12.5,22.8L12.5,22.8z M36.6,22.8c5.2,0,9.4,4.2,9.4,9.4
	c0,5.2-4.2,9.4-9.4,9.4c-5.2,0-9.4-4.2-9.4-9.4l0-1.3C27.2,20.5,35.6,12,46,12v5.4c-3.6,0-6.9,1.4-9.5,3.9c-0.5,0.5-0.9,1-1.3,1.6
	C35.6,22.8,36.1,22.8,36.6,22.8L36.6,22.8z M36.6,22.8"/>
</svg>
